<mxfile host="app.diagrams.net" agent="Mozilla/5.0 (Windows NT 10.0; Win64; x64) AppleWebKit/537.36 (KHTML, like Gecko) Chrome/127.0.0.0 Safari/537.36" version="24.7.6">
  <diagram name="P치gina-1" id="y6Detbh3lxwixJPsYmzP">
    <mxGraphModel dx="1434" dy="738" grid="1" gridSize="10" guides="1" tooltips="1" connect="1" arrows="1" fold="1" page="1" pageScale="1" pageWidth="827" pageHeight="1169" math="0" shadow="0">
      <root>
        <mxCell id="0" />
        <mxCell id="1" parent="0" />
        <mxCell id="TdHNKNcJ1d58pPpJabAQ-6" value="Trabalha" style="rhombus;whiteSpace=wrap;html=1;" vertex="1" parent="1">
          <mxGeometry x="440" y="280" width="80" height="80" as="geometry" />
        </mxCell>
        <mxCell id="TdHNKNcJ1d58pPpJabAQ-7" value="Departamento" style="rounded=0;whiteSpace=wrap;html=1;" vertex="1" parent="1">
          <mxGeometry x="600" y="290" width="120" height="60" as="geometry" />
        </mxCell>
        <mxCell id="TdHNKNcJ1d58pPpJabAQ-8" value="Funcionario" style="rounded=0;whiteSpace=wrap;html=1;" vertex="1" parent="1">
          <mxGeometry x="260" y="200" width="120" height="60" as="geometry" />
        </mxCell>
        <mxCell id="TdHNKNcJ1d58pPpJabAQ-9" value="" style="endArrow=none;html=1;rounded=0;exitX=1;exitY=0.5;exitDx=0;exitDy=0;entryX=0.5;entryY=0;entryDx=0;entryDy=0;" edge="1" parent="1" source="TdHNKNcJ1d58pPpJabAQ-8" target="TdHNKNcJ1d58pPpJabAQ-6">
          <mxGeometry width="50" height="50" relative="1" as="geometry">
            <mxPoint x="390" y="410" as="sourcePoint" />
            <mxPoint x="440" y="360" as="targetPoint" />
          </mxGeometry>
        </mxCell>
        <mxCell id="TdHNKNcJ1d58pPpJabAQ-10" value="" style="endArrow=none;html=1;rounded=0;entryX=1;entryY=0.5;entryDx=0;entryDy=0;exitX=0;exitY=0.5;exitDx=0;exitDy=0;" edge="1" parent="1" source="TdHNKNcJ1d58pPpJabAQ-7" target="TdHNKNcJ1d58pPpJabAQ-6">
          <mxGeometry width="50" height="50" relative="1" as="geometry">
            <mxPoint x="390" y="410" as="sourcePoint" />
            <mxPoint x="440" y="360" as="targetPoint" />
          </mxGeometry>
        </mxCell>
        <mxCell id="TdHNKNcJ1d58pPpJabAQ-11" value="1:1&lt;div&gt;&lt;br&gt;&lt;/div&gt;" style="text;html=1;align=center;verticalAlign=middle;whiteSpace=wrap;rounded=0;" vertex="1" parent="1">
          <mxGeometry x="370" y="210" width="60" height="30" as="geometry" />
        </mxCell>
        <mxCell id="TdHNKNcJ1d58pPpJabAQ-12" value="1:N" style="text;html=1;align=center;verticalAlign=middle;whiteSpace=wrap;rounded=0;" vertex="1" parent="1">
          <mxGeometry x="520" y="280" width="60" height="30" as="geometry" />
        </mxCell>
        <mxCell id="TdHNKNcJ1d58pPpJabAQ-14" value="Gerente" style="rounded=0;whiteSpace=wrap;html=1;" vertex="1" parent="1">
          <mxGeometry x="270" y="420" width="120" height="60" as="geometry" />
        </mxCell>
        <mxCell id="TdHNKNcJ1d58pPpJabAQ-26" value="C칩digo" style="ellipse;whiteSpace=wrap;html=1;fontStyle=4" vertex="1" parent="1">
          <mxGeometry x="60" y="130" width="120" height="30" as="geometry" />
        </mxCell>
        <mxCell id="TdHNKNcJ1d58pPpJabAQ-27" value="Nome" style="ellipse;whiteSpace=wrap;html=1;" vertex="1" parent="1">
          <mxGeometry x="60" y="170" width="120" height="30" as="geometry" />
        </mxCell>
        <mxCell id="TdHNKNcJ1d58pPpJabAQ-28" value="Telefone" style="ellipse;whiteSpace=wrap;html=1;" vertex="1" parent="1">
          <mxGeometry x="60" y="215" width="120" height="30" as="geometry" />
        </mxCell>
        <mxCell id="TdHNKNcJ1d58pPpJabAQ-36" value="" style="endArrow=none;html=1;rounded=0;exitX=0;exitY=0.25;exitDx=0;exitDy=0;" edge="1" parent="1" source="TdHNKNcJ1d58pPpJabAQ-8" target="TdHNKNcJ1d58pPpJabAQ-26">
          <mxGeometry width="50" height="50" relative="1" as="geometry">
            <mxPoint x="390" y="410" as="sourcePoint" />
            <mxPoint x="440" y="360" as="targetPoint" />
          </mxGeometry>
        </mxCell>
        <mxCell id="TdHNKNcJ1d58pPpJabAQ-37" value="" style="endArrow=none;html=1;rounded=0;" edge="1" parent="1">
          <mxGeometry width="50" height="50" relative="1" as="geometry">
            <mxPoint x="260" y="220" as="sourcePoint" />
            <mxPoint x="180" y="187" as="targetPoint" />
          </mxGeometry>
        </mxCell>
        <mxCell id="TdHNKNcJ1d58pPpJabAQ-38" value="" style="endArrow=none;html=1;rounded=0;entryX=1;entryY=0.5;entryDx=0;entryDy=0;" edge="1" parent="1" target="TdHNKNcJ1d58pPpJabAQ-28">
          <mxGeometry width="50" height="50" relative="1" as="geometry">
            <mxPoint x="260" y="220" as="sourcePoint" />
            <mxPoint x="190" y="197" as="targetPoint" />
          </mxGeometry>
        </mxCell>
        <mxCell id="TdHNKNcJ1d58pPpJabAQ-39" value="C칩digo" style="ellipse;whiteSpace=wrap;html=1;fontStyle=4" vertex="1" parent="1">
          <mxGeometry x="50" y="407.5" width="120" height="30" as="geometry" />
        </mxCell>
        <mxCell id="TdHNKNcJ1d58pPpJabAQ-40" value="Nome" style="ellipse;whiteSpace=wrap;html=1;" vertex="1" parent="1">
          <mxGeometry x="50" y="447.5" width="120" height="30" as="geometry" />
        </mxCell>
        <mxCell id="TdHNKNcJ1d58pPpJabAQ-41" value="Telefone" style="ellipse;whiteSpace=wrap;html=1;" vertex="1" parent="1">
          <mxGeometry x="50" y="492.5" width="120" height="30" as="geometry" />
        </mxCell>
        <mxCell id="TdHNKNcJ1d58pPpJabAQ-42" value="" style="endArrow=none;html=1;rounded=0;exitX=1;exitY=0.5;exitDx=0;exitDy=0;entryX=-0.008;entryY=0.15;entryDx=0;entryDy=0;entryPerimeter=0;" edge="1" parent="1" source="TdHNKNcJ1d58pPpJabAQ-39" target="TdHNKNcJ1d58pPpJabAQ-14">
          <mxGeometry width="50" height="50" relative="1" as="geometry">
            <mxPoint x="390" y="410" as="sourcePoint" />
            <mxPoint x="260" y="424" as="targetPoint" />
          </mxGeometry>
        </mxCell>
        <mxCell id="TdHNKNcJ1d58pPpJabAQ-43" value="" style="endArrow=none;html=1;rounded=0;exitX=1;exitY=0.5;exitDx=0;exitDy=0;entryX=0;entryY=0.25;entryDx=0;entryDy=0;" edge="1" parent="1" source="TdHNKNcJ1d58pPpJabAQ-40" target="TdHNKNcJ1d58pPpJabAQ-14">
          <mxGeometry width="50" height="50" relative="1" as="geometry">
            <mxPoint x="390" y="410" as="sourcePoint" />
            <mxPoint x="440" y="360" as="targetPoint" />
          </mxGeometry>
        </mxCell>
        <mxCell id="TdHNKNcJ1d58pPpJabAQ-44" value="" style="endArrow=none;html=1;rounded=0;exitX=1;exitY=0.5;exitDx=0;exitDy=0;" edge="1" parent="1" source="TdHNKNcJ1d58pPpJabAQ-41">
          <mxGeometry width="50" height="50" relative="1" as="geometry">
            <mxPoint x="170" y="500" as="sourcePoint" />
            <mxPoint x="270" y="450" as="targetPoint" />
          </mxGeometry>
        </mxCell>
        <mxCell id="TdHNKNcJ1d58pPpJabAQ-45" value="&lt;u&gt;C칩digo&lt;/u&gt;" style="ellipse;whiteSpace=wrap;html=1;" vertex="1" parent="1">
          <mxGeometry x="790" y="280" width="120" height="30" as="geometry" />
        </mxCell>
        <mxCell id="TdHNKNcJ1d58pPpJabAQ-46" value="Nome" style="ellipse;whiteSpace=wrap;html=1;" vertex="1" parent="1">
          <mxGeometry x="790" y="340" width="120" height="30" as="geometry" />
        </mxCell>
        <mxCell id="TdHNKNcJ1d58pPpJabAQ-47" value="" style="endArrow=none;html=1;rounded=0;entryX=0.058;entryY=0.733;entryDx=0;entryDy=0;entryPerimeter=0;exitX=1;exitY=0.25;exitDx=0;exitDy=0;" edge="1" parent="1" source="TdHNKNcJ1d58pPpJabAQ-7" target="TdHNKNcJ1d58pPpJabAQ-45">
          <mxGeometry width="50" height="50" relative="1" as="geometry">
            <mxPoint x="390" y="410" as="sourcePoint" />
            <mxPoint x="440" y="360" as="targetPoint" />
          </mxGeometry>
        </mxCell>
        <mxCell id="TdHNKNcJ1d58pPpJabAQ-48" value="" style="endArrow=none;html=1;rounded=0;entryX=0;entryY=0.5;entryDx=0;entryDy=0;exitX=1;exitY=0.25;exitDx=0;exitDy=0;" edge="1" parent="1" target="TdHNKNcJ1d58pPpJabAQ-46">
          <mxGeometry width="50" height="50" relative="1" as="geometry">
            <mxPoint x="720" y="340" as="sourcePoint" />
            <mxPoint x="790" y="390" as="targetPoint" />
          </mxGeometry>
        </mxCell>
        <mxCell id="TdHNKNcJ1d58pPpJabAQ-49" value="Cpf" style="ellipse;whiteSpace=wrap;html=1;" vertex="1" parent="1">
          <mxGeometry x="60" y="260" width="120" height="30" as="geometry" />
        </mxCell>
        <mxCell id="TdHNKNcJ1d58pPpJabAQ-50" value="Cpf" style="ellipse;whiteSpace=wrap;html=1;" vertex="1" parent="1">
          <mxGeometry x="50" y="530" width="120" height="30" as="geometry" />
        </mxCell>
        <mxCell id="TdHNKNcJ1d58pPpJabAQ-51" value="" style="endArrow=none;html=1;rounded=0;exitX=1;exitY=0.5;exitDx=0;exitDy=0;entryX=0;entryY=0.75;entryDx=0;entryDy=0;" edge="1" parent="1" source="TdHNKNcJ1d58pPpJabAQ-50" target="TdHNKNcJ1d58pPpJabAQ-14">
          <mxGeometry width="50" height="50" relative="1" as="geometry">
            <mxPoint x="390" y="410" as="sourcePoint" />
            <mxPoint x="440" y="360" as="targetPoint" />
          </mxGeometry>
        </mxCell>
        <mxCell id="TdHNKNcJ1d58pPpJabAQ-52" value="" style="endArrow=none;html=1;rounded=0;exitX=1;exitY=0.5;exitDx=0;exitDy=0;entryX=0;entryY=0.5;entryDx=0;entryDy=0;" edge="1" parent="1" source="TdHNKNcJ1d58pPpJabAQ-49" target="TdHNKNcJ1d58pPpJabAQ-8">
          <mxGeometry width="50" height="50" relative="1" as="geometry">
            <mxPoint x="390" y="410" as="sourcePoint" />
            <mxPoint x="440" y="360" as="targetPoint" />
          </mxGeometry>
        </mxCell>
        <mxCell id="TdHNKNcJ1d58pPpJabAQ-53" value="" style="endArrow=none;html=1;rounded=0;exitX=1;exitY=0.5;exitDx=0;exitDy=0;entryX=0.5;entryY=1;entryDx=0;entryDy=0;" edge="1" parent="1" source="TdHNKNcJ1d58pPpJabAQ-14" target="TdHNKNcJ1d58pPpJabAQ-6">
          <mxGeometry width="50" height="50" relative="1" as="geometry">
            <mxPoint x="390" y="310" as="sourcePoint" />
            <mxPoint x="440" y="260" as="targetPoint" />
          </mxGeometry>
        </mxCell>
        <mxCell id="TdHNKNcJ1d58pPpJabAQ-54" value="1:1&lt;div&gt;&lt;br&gt;&lt;/div&gt;" style="text;html=1;align=center;verticalAlign=middle;whiteSpace=wrap;rounded=0;" vertex="1" parent="1">
          <mxGeometry x="384" y="450" width="60" height="30" as="geometry" />
        </mxCell>
      </root>
    </mxGraphModel>
  </diagram>
</mxfile>
